<svg width="800" height="744" viewBox="0 0 800 744" fill="none" xmlns="http://www.w3.org/2000/svg">
<g opacity="0.3" filter="url(#filter0_f_2130_12333)">
<circle cx="508.5" cy="320.5" r="120.5" fill="#0EBBD2"/>
</g>
<g opacity="0.3" filter="url(#filter1_f_2130_12333)">
<circle cx="388.15" cy="381.073" r="162" fill="#02FAAF"/>
</g>
<g opacity="0.3" filter="url(#filter2_f_2130_12333)">
<circle cx="301.5" cy="310.5" r="101.5" fill="#00C2FF"/>
</g>
<g filter="url(#filter3_d_2130_12333)">
<circle cx="406" cy="391.073" r="159" fill="url(#paint0_linear_2130_12333)" fill-opacity="0.1" shape-rendering="crispEdges"/>
<circle cx="406" cy="391.073" r="158.5" stroke="url(#paint1_linear_2130_12333)" style="mix-blend-mode:overlay" shape-rendering="crispEdges"/>
</g>
<path d="M406.47 497.526C378.2 497.526 351.51 486.406 331.32 466.206C311.12 446.016 300 419.326 300 391.056C300 359.506 313.86 329.776 338.03 309.496C342.68 305.586 349.62 306.196 353.53 310.856C357.44 315.506 356.83 322.446 352.17 326.356C332.99 342.446 322 366.036 322 391.066C322 413.456 330.83 434.626 346.87 450.666C362.91 466.706 384.08 475.536 406.47 475.536C428.86 475.536 450.03 466.706 466.07 450.666C482.111 434.626 490.94 413.456 490.94 391.066C490.94 368.676 482.111 347.506 466.07 331.466C450.03 315.426 428.86 306.596 406.47 306.596C400.39 306.596 395.47 301.676 395.47 295.596C395.47 289.516 400.4 284.586 406.47 284.586C434.74 284.586 461.43 295.706 481.62 315.906C501.82 336.106 512.94 362.796 512.94 391.056C512.94 419.316 501.82 446.016 481.62 466.206C461.42 486.396 434.73 497.526 406.47 497.526Z" fill="url(#paint2_angular_2130_12333)"/>
<path d="M382 370.073L406.149 411.162L430.298 370.073H420.638L406.149 394.726L391.539 370.073H382Z" fill="#3DD491"/>
<path d="M391.657 370.073L406.206 395.049L420.635 370.073H411.737L406.206 379.679L400.555 370.073H391.657Z" fill="#2C3D4F"/>
<defs>
<filter id="filter0_f_2130_12333" x="188" y="0" width="641" height="641" filterUnits="userSpaceOnUse" color-interpolation-filters="sRGB">
<feFlood flood-opacity="0" result="BackgroundImageFix"/>
<feBlend mode="normal" in="SourceGraphic" in2="BackgroundImageFix" result="shape"/>
<feGaussianBlur stdDeviation="100" result="effect1_foregroundBlur_2130_12333"/>
</filter>
<filter id="filter1_f_2130_12333" x="26.1504" y="19.0728" width="724" height="724" filterUnits="userSpaceOnUse" color-interpolation-filters="sRGB">
<feFlood flood-opacity="0" result="BackgroundImageFix"/>
<feBlend mode="normal" in="SourceGraphic" in2="BackgroundImageFix" result="shape"/>
<feGaussianBlur stdDeviation="100" result="effect1_foregroundBlur_2130_12333"/>
</filter>
<filter id="filter2_f_2130_12333" x="0" y="9" width="603" height="603" filterUnits="userSpaceOnUse" color-interpolation-filters="sRGB">
<feFlood flood-opacity="0" result="BackgroundImageFix"/>
<feBlend mode="normal" in="SourceGraphic" in2="BackgroundImageFix" result="shape"/>
<feGaussianBlur stdDeviation="100" result="effect1_foregroundBlur_2130_12333"/>
</filter>
<filter id="filter3_d_2130_12333" x="113" y="98.0728" width="586" height="586" filterUnits="userSpaceOnUse" color-interpolation-filters="sRGB">
<feFlood flood-opacity="0" result="BackgroundImageFix"/>
<feColorMatrix in="SourceAlpha" type="matrix" values="0 0 0 0 0 0 0 0 0 0 0 0 0 0 0 0 0 0 127 0" result="hardAlpha"/>
<feOffset/>
<feGaussianBlur stdDeviation="67"/>
<feComposite in2="hardAlpha" operator="out"/>
<feColorMatrix type="matrix" values="0 0 0 0 0 0 0 0 0 0 0 0 0 0 0 0 0 0 0.25 0"/>
<feBlend mode="normal" in2="BackgroundImageFix" result="effect1_dropShadow_2130_12333"/>
<feBlend mode="normal" in="SourceGraphic" in2="effect1_dropShadow_2130_12333" result="shape"/>
</filter>
<linearGradient id="paint0_linear_2130_12333" x1="406" y1="232.073" x2="406" y2="550.073" gradientUnits="userSpaceOnUse">
<stop stop-color="white"/>
<stop offset="1" stop-color="white" stop-opacity="0"/>
</linearGradient>
<linearGradient id="paint1_linear_2130_12333" x1="543.554" y1="243.299" x2="270.191" y2="527.151" gradientUnits="userSpaceOnUse">
<stop offset="0.0833333" stop-color="#42B883"/>
<stop offset="0.270833" stop-color="#02C2FF"/>
<stop offset="0.53125" stop-color="white"/>
<stop offset="0.703125" stop-color="#02C2FF"/>
<stop offset="0.880208" stop-color="#42B883"/>
<stop offset="1" stop-color="#02C2FF"/>
</linearGradient>
<radialGradient id="paint2_angular_2130_12333" cx="0" cy="0" r="1" gradientUnits="userSpaceOnUse" gradientTransform="translate(406.47 391.056) rotate(-97.7395) scale(107.449)">
<stop stop-color="#42B883"/>
<stop offset="1" stop-color="#0EBBD2"/>
</radialGradient>
</defs>
</svg>
