<svg width="793" height="744" viewBox="0 0 793 744" fill="none" xmlns="http://www.w3.org/2000/svg">
<g opacity="0.3" filter="url(#filter0_f_2130_12363)">
<circle cx="508.5" cy="320.646" r="120.5" fill="#0EBBD2"/>
</g>
<g opacity="0.3" filter="url(#filter1_f_2130_12363)">
<circle cx="388.15" cy="381.218" r="162" fill="#02FAAF"/>
</g>
<g opacity="0.3" filter="url(#filter2_f_2130_12363)">
<circle cx="301.5" cy="310.646" r="101.5" fill="#00C2FF"/>
</g>
<path d="M406 281.146C401.315 281.146 396.675 282.065 392.346 283.85C388.018 285.636 384.085 288.254 380.771 291.553C377.458 294.853 374.83 298.77 373.037 303.081C371.244 307.393 370.321 312.013 370.321 316.68C370.321 321.346 371.244 325.967 373.037 330.278C374.83 334.589 377.458 338.506 380.771 341.806C384.085 345.106 388.018 347.723 392.346 349.509C396.675 351.295 401.315 352.214 406 352.214C415.463 352.214 424.538 348.47 431.229 341.806C437.92 335.142 441.679 326.104 441.679 316.68C441.679 307.255 437.92 298.217 431.229 291.553C424.538 284.889 415.463 281.146 406 281.146ZM486.357 298.895C479.253 298.895 472.44 301.705 467.417 306.708C462.393 311.711 459.571 318.497 459.571 325.572C459.571 332.647 462.393 339.433 467.417 344.436C472.44 349.439 479.253 352.249 486.357 352.249C493.461 352.249 500.274 349.439 505.298 344.436C510.321 339.433 513.143 332.647 513.143 325.572C513.143 318.497 510.321 311.711 505.298 306.708C500.274 301.705 493.461 298.895 486.357 298.895ZM325.643 298.895C318.539 298.895 311.726 301.705 306.703 306.708C301.679 311.711 298.857 318.497 298.857 325.572C298.857 332.647 301.679 339.433 306.703 344.436C311.726 349.439 318.539 352.249 325.643 352.249C332.747 352.249 339.56 349.439 344.583 344.436C349.607 339.433 352.429 332.647 352.429 325.572C352.429 318.497 349.607 311.711 344.583 306.708C339.56 301.705 332.747 298.895 325.643 298.895ZM352.429 387.695C352.462 382.999 354.358 378.508 357.703 375.199C361.048 371.891 365.571 370.034 370.286 370.034H441.714C446.45 370.034 450.992 371.908 454.341 375.243C457.69 378.579 459.571 383.102 459.571 387.819V441.174C459.57 446.771 458.691 452.334 456.964 457.66C453.01 469.731 444.865 480.002 433.991 486.63C423.118 493.258 410.228 495.808 397.636 493.822C385.045 491.836 373.576 485.445 365.291 475.795C357.005 466.146 352.445 453.871 352.429 441.174V387.695ZM334.571 387.819C334.571 381.328 336.304 375.263 339.357 370.034H298.857C294.121 370.034 289.579 371.908 286.23 375.243C282.881 378.579 281 383.102 281 387.819V432.281C280.998 439.561 282.79 446.73 286.219 453.158C289.649 459.586 294.61 465.078 300.669 469.15C306.727 473.222 313.697 475.751 320.965 476.514C328.234 477.276 335.58 476.25 342.357 473.524C337.217 463.504 334.549 452.408 334.571 441.156V387.819ZM477.429 387.819V441.174C477.429 452.823 474.625 463.814 469.643 473.524C476.42 476.25 483.766 477.276 491.035 476.514C498.304 475.751 505.273 473.222 511.331 469.15C517.39 465.078 522.351 459.586 525.781 453.158C529.21 446.73 531.002 439.561 531 432.281V387.819C531 383.102 529.119 378.579 525.77 375.243C522.421 371.908 517.879 370.034 513.143 370.034H472.643C475.679 375.263 477.429 381.328 477.429 387.819Z" fill="url(#paint0_linear_2130_12363)"/>
<g clip-path="url(#clip0_2130_12363)" filter="url(#filter3_b_2130_12363)">
<path d="M463.5 245.575V291.15C463.5 296.078 459.483 300.08 454.528 300.08H439.982C438.767 300.08 437.61 300.551 436.752 301.419C436.752 301.42 436.751 301.421 436.751 301.421L428.537 309.598C427.139 310.99 424.875 310.99 423.477 309.598L415.26 301.418C414.406 300.568 413.237 300.08 412.032 300.08H397.472C392.517 300.08 388.5 296.078 388.5 291.15V245.575C388.5 240.647 392.517 236.646 397.472 236.646H454.528C459.483 236.646 463.5 240.647 463.5 245.575Z" fill="url(#paint1_linear_2130_12363)" fill-opacity="0.1"/>
<path d="M463.5 245.575V291.15C463.5 296.078 459.483 300.08 454.528 300.08H439.982C438.767 300.08 437.61 300.551 436.752 301.419C436.752 301.42 436.751 301.421 436.751 301.421L428.537 309.598C427.139 310.99 424.875 310.99 423.477 309.598L415.26 301.418C414.406 300.568 413.237 300.08 412.032 300.08H397.472C392.517 300.08 388.5 296.078 388.5 291.15V245.575C388.5 240.647 392.517 236.646 397.472 236.646H454.528C459.483 236.646 463.5 240.647 463.5 245.575Z" stroke="url(#paint2_linear_2130_12363)" style="mix-blend-mode:overlay"/>
<path d="M432.971 266.411L427.381 260.821C426.987 260.427 426.485 260.23 425.876 260.23C425.267 260.23 424.765 260.427 424.371 260.821L418.727 266.465C418.333 266.859 418.144 267.352 418.161 267.944C418.179 268.536 418.385 269.028 418.781 269.421C419.175 269.815 419.677 270.012 420.286 270.012C420.895 270.012 421.397 269.815 421.791 269.421L423.726 267.486L423.726 274.42C423.726 275.029 423.932 275.531 424.345 275.925C424.758 276.319 425.268 276.516 425.876 276.516C426.485 276.516 426.996 276.31 427.409 275.897C427.821 275.484 428.027 274.974 428.026 274.366L428.026 267.486L430.014 269.475C430.409 269.869 430.902 270.057 431.494 270.04C432.086 270.023 432.578 269.817 432.971 269.421C433.365 269.027 433.562 268.525 433.562 267.916C433.562 267.307 433.365 266.805 432.971 266.411ZM447.376 267.916C447.376 270.89 446.811 273.685 445.681 276.301C444.552 278.917 443.021 281.192 441.087 283.127C439.152 285.062 436.877 286.594 434.261 287.722C431.645 288.85 428.85 289.415 425.876 289.416C422.902 289.416 420.107 288.851 417.491 287.722C414.875 286.592 412.599 285.061 410.664 283.127C408.729 281.192 407.198 278.917 406.07 276.301C404.942 273.685 404.377 270.89 404.376 267.916C404.376 264.942 404.94 262.147 406.07 259.531C407.199 256.915 408.731 254.64 410.664 252.705C412.599 250.77 414.875 249.238 417.491 248.108C420.107 246.979 422.902 246.415 425.876 246.416C428.85 246.416 431.645 246.981 434.261 248.11C436.877 249.24 439.152 250.771 441.087 252.705C443.022 254.64 444.554 256.915 445.684 259.531C446.813 262.147 447.377 264.942 447.376 267.916Z" fill="#E8E6E6"/>
</g>
<defs>
<filter id="filter0_f_2130_12363" x="188" y="0.145508" width="641" height="641" filterUnits="userSpaceOnUse" color-interpolation-filters="sRGB">
<feFlood flood-opacity="0" result="BackgroundImageFix"/>
<feBlend mode="normal" in="SourceGraphic" in2="BackgroundImageFix" result="shape"/>
<feGaussianBlur stdDeviation="100" result="effect1_foregroundBlur_2130_12363"/>
</filter>
<filter id="filter1_f_2130_12363" x="26.1504" y="19.2183" width="724" height="724" filterUnits="userSpaceOnUse" color-interpolation-filters="sRGB">
<feFlood flood-opacity="0" result="BackgroundImageFix"/>
<feBlend mode="normal" in="SourceGraphic" in2="BackgroundImageFix" result="shape"/>
<feGaussianBlur stdDeviation="100" result="effect1_foregroundBlur_2130_12363"/>
</filter>
<filter id="filter2_f_2130_12363" x="0" y="9.14551" width="603" height="603" filterUnits="userSpaceOnUse" color-interpolation-filters="sRGB">
<feFlood flood-opacity="0" result="BackgroundImageFix"/>
<feBlend mode="normal" in="SourceGraphic" in2="BackgroundImageFix" result="shape"/>
<feGaussianBlur stdDeviation="100" result="effect1_foregroundBlur_2130_12363"/>
</filter>
<filter id="filter3_b_2130_12363" x="348" y="196.146" width="156" height="155" filterUnits="userSpaceOnUse" color-interpolation-filters="sRGB">
<feFlood flood-opacity="0" result="BackgroundImageFix"/>
<feGaussianBlur in="BackgroundImageFix" stdDeviation="20"/>
<feComposite in2="SourceAlpha" operator="in" result="effect1_backgroundBlur_2130_12363"/>
<feBlend mode="normal" in="SourceGraphic" in2="effect1_backgroundBlur_2130_12363" result="shape"/>
</filter>
<linearGradient id="paint0_linear_2130_12363" x1="281" y1="281.146" x2="570.319" y2="386.388" gradientUnits="userSpaceOnUse">
<stop stop-color="#42B883"/>
<stop offset="0.0001" stop-color="#42B883"/>
<stop offset="1" stop-color="#0EBBD2"/>
</linearGradient>
<linearGradient id="paint1_linear_2130_12363" x1="426" y1="236.146" x2="426" y2="311.142" gradientUnits="userSpaceOnUse">
<stop stop-color="white"/>
<stop offset="1" stop-color="white" stop-opacity="0"/>
</linearGradient>
<linearGradient id="paint2_linear_2130_12363" x1="458.874" y1="238.793" x2="394.443" y2="306.592" gradientUnits="userSpaceOnUse">
<stop offset="0.0833333" stop-color="#42B883"/>
<stop offset="0.270833" stop-color="#02C2FF"/>
<stop offset="0.53125" stop-color="white"/>
<stop offset="0.703125" stop-color="#02C2FF"/>
<stop offset="0.880208" stop-color="#42B883"/>
<stop offset="1" stop-color="#02C2FF"/>
</linearGradient>
<clipPath id="clip0_2130_12363">
<rect width="76" height="75" fill="white" transform="translate(388 236.146)"/>
</clipPath>
</defs>
</svg>
