<svg width="62" height="51" viewBox="0 0 62 51" fill="none" xmlns="http://www.w3.org/2000/svg">
<path d="M33.8075 1.39274C34.0124 1.08825 34.2756 0.827388 34.5819 0.625238C34.8881 0.423089 35.2315 0.283662 35.592 0.215019C35.9525 0.146377 36.323 0.14988 36.6821 0.225328C37.0413 0.300776 37.3819 0.446671 37.6843 0.654576C37.9867 0.862482 38.2449 1.12827 38.444 1.43658C38.643 1.74489 38.779 2.0896 38.844 2.45078C38.909 2.81196 38.9017 3.18244 38.8227 3.5408C38.7436 3.89917 38.5943 4.2383 38.3833 4.5386L33.9131 11.0413L56.9919 44.6129H58.308C59.0444 44.6129 59.7507 44.9054 60.2714 45.4261C60.7921 45.9468 61.0846 46.653 61.0846 47.3894C61.0846 48.1258 60.7921 48.8321 60.2714 49.3528C59.7507 49.8735 59.0444 50.166 58.308 50.166H45.4414L45.3192 49.9717L32.8469 31.96C32.5887 31.5878 32.2443 31.2836 31.8429 31.0735C31.4416 30.8634 30.9953 30.7536 30.5423 30.7536C30.0893 30.7536 29.643 30.8634 29.2417 31.0735C28.8403 31.2836 28.4959 31.5878 28.2377 31.96L15.7654 49.9717L15.6432 50.166H2.77657C2.04018 50.166 1.33395 49.8735 0.813239 49.3528C0.292531 48.8321 0 48.1258 0 47.3894C0 46.653 0.292531 45.9468 0.813239 45.4261C1.33395 44.9054 2.04018 44.6129 2.77657 44.6129H4.09267L27.1743 11.0386L22.7013 4.53582C22.2929 3.92885 22.1406 3.18525 22.2775 2.46662C22.4143 1.74799 22.8292 1.1124 23.432 0.697958C24.0348 0.283519 24.7769 0.123726 25.4968 0.253302C26.2168 0.382878 26.8566 0.791353 27.2771 1.38996L30.5423 6.14068L33.8075 1.39274ZM30.5423 38.385L38.6999 50.166H22.3847L30.5423 38.385Z" fill="url(#paint0_linear_532_2280)"/>
<defs>
<linearGradient id="paint0_linear_532_2280" x1="0" y1="0.166016" x2="69.9817" y2="26.7047" gradientUnits="userSpaceOnUse">
<stop stop-color="#42B883"/>
<stop offset="0.0001" stop-color="#42B883"/>
<stop offset="1" stop-color="#0EBBD2"/>
</linearGradient>
</defs>
</svg>
