<svg width="60" height="61" viewBox="0 0 60 61" fill="none" xmlns="http://www.w3.org/2000/svg">
<path d="M1.65191 24.788C0.745712 25.45 0.561516 26.7279 1.24387 27.6189L2.34016 29.0504C2.88988 29.7682 2.88967 30.7656 2.33966 31.4831L1.24507 32.9112C0.562141 33.8022 0.746136 35.0806 1.6526 35.7428L3.09914 36.7996C3.83044 37.3339 4.11145 38.2929 3.78415 39.1373L3.13358 40.8159C2.72723 41.8643 3.26476 43.0416 4.32316 43.4212L5.99648 44.0214C6.85053 44.3277 7.39136 45.1706 7.31393 46.0746L7.16069 47.8636C7.06459 48.9856 7.91333 49.9657 9.03754 50.031L10.8009 50.1333C11.7079 50.1859 12.4655 50.8433 12.6454 51.7338L12.9992 53.4844C13.2226 54.5902 14.3159 55.2924 15.4144 55.0358L17.1267 54.6359C18.0139 54.4287 18.9291 54.8473 19.3525 55.654L20.1752 57.2214C20.7006 58.2224 21.9506 58.5893 22.9337 58.031L24.4587 57.165C25.252 56.7146 26.2495 56.858 26.8838 57.5136L28.108 58.7791C28.8941 59.5917 30.1969 59.5917 30.983 58.7791L32.2072 57.5136C32.8414 56.858 33.839 56.7146 34.6323 57.165L36.1573 58.031C37.1404 58.5893 38.3904 58.2224 38.9158 57.2214L39.7385 55.654C40.1619 54.8473 41.0771 54.4287 41.9643 54.6359L43.6765 55.0358C44.7751 55.2924 45.8684 54.5902 46.0918 53.4844L46.4455 51.7338C46.6255 50.8433 47.3831 50.1859 48.2901 50.1333L50.0534 50.031C51.1776 49.9657 52.0264 48.9856 51.9303 47.8636L51.7771 46.0746C51.6996 45.1706 52.2405 44.3277 53.0945 44.0214L54.7678 43.4212C55.8262 43.0416 56.3638 41.8643 55.9574 40.8159L55.3068 39.1373C54.9795 38.2929 55.2605 37.3339 55.9918 36.7996L57.4384 35.7428C58.3448 35.0806 58.5288 33.8022 57.8459 32.9112L56.7513 31.4831C56.2013 30.7656 56.2011 29.7682 56.7508 29.0504L57.8471 27.6189C58.5295 26.7279 58.3453 25.45 57.4391 24.788L55.9918 23.7307C55.2605 23.1964 54.9795 22.2374 55.3068 21.3929L55.9574 19.7144C56.3638 18.666 55.8262 17.4887 54.7678 17.1091L53.0945 16.5089C52.2405 16.2025 51.6996 15.3596 51.7771 14.4556L51.9302 12.668C52.0263 11.5455 51.1767 10.5651 50.0519 10.5006L48.2912 10.3997C47.3837 10.3477 46.6254 9.69011 46.4453 8.79908L46.0915 7.04823C45.8682 5.94296 44.7758 5.24072 43.6776 5.49646L41.963 5.89573C41.0763 6.10219 40.1621 5.68384 39.7388 4.87792L38.9155 3.31058C38.3901 2.31038 37.1411 1.94361 36.1583 2.50091L34.6319 3.36652C33.8388 3.81629 32.8418 3.67268 32.2079 3.01734L30.983 1.75112C30.1969 0.938534 28.8941 0.938533 28.108 1.75112L26.8831 3.01734C26.2492 3.67268 25.2522 3.81629 24.4591 3.36652L22.9327 2.50091C21.9499 1.94361 20.7009 2.31038 20.1755 3.31058L19.3522 4.87792C18.9288 5.68384 18.0146 6.10219 17.128 5.89573L15.4134 5.49646C14.3152 5.24072 13.2228 5.94296 12.9994 7.04823L12.6457 8.79908C12.4656 9.69011 11.7073 10.3477 10.7998 10.3997L9.03904 10.5006C7.91424 10.5651 7.06466 11.5455 7.16081 12.668L7.31393 14.4556C7.39136 15.3596 6.85053 16.2025 5.99648 16.5089L4.32316 17.1091C3.26476 17.4887 2.72722 18.666 3.13358 19.7144L3.78415 21.3929C4.11145 22.2374 3.83044 23.1964 3.09914 23.7307L1.65191 24.788Z" fill="url(#paint0_linear_4752_39407)" fill-opacity="0.3"/>
<path d="M15.098 19.1362L29.323 43.3399L43.548 19.1362H37.858L29.323 33.6584L20.7169 19.1362H15.098Z" fill="#3DD491"/>
<path d="M20.7864 19.1362L29.3568 33.8483L37.8563 19.1362H32.6149L29.3568 24.7947L26.0278 19.1362H20.7864Z" fill="#2C3D4F"/>
<defs>
<linearGradient id="paint0_linear_4752_39407" x1="59.0909" y1="0.265137" x2="-11.7242" y2="21.9137" gradientUnits="userSpaceOnUse">
<stop stop-color="#42B883"/>
<stop offset="0.0001" stop-color="#42B883"/>
<stop offset="1" stop-color="#0EBBD2"/>
</linearGradient>
</defs>
</svg>
