<svg width="24" height="28" viewBox="0 0 24 28" fill="none" xmlns="http://www.w3.org/2000/svg">
<path fill-rule="evenodd" clip-rule="evenodd" d="M18.0025 5.57184C20.1205 6.79536 21.814 8.6369 22.8562 10.8498C23.8984 13.0627 24.2395 15.5412 23.8337 17.9533C23.428 20.3654 22.2948 22.596 20.586 24.3461C18.8772 26.0962 16.6743 27.2823 14.2726 27.7455C11.8708 28.2088 9.38487 27.927 7.14774 26.9379C4.91061 25.9489 3.02915 24.2998 1.75542 22.2116C0.481681 20.1234 -0.1235 17.6958 0.0209488 15.2541C0.165397 12.8123 1.05257 10.473 2.56363 8.54956C2.90992 8.10898 3.57506 8.17584 3.92306 8.61641C4.39963 9.21984 4.94134 9.76841 5.53963 10.2518C6.10877 10.713 6.88706 10.1678 6.86477 9.43584C6.81004 7.80365 7.14623 6.18203 7.84534 4.70613C8.76031 2.7799 10.249 1.18404 12.1071 0.137561C12.5305 -0.102439 13.0499 0.110133 13.2676 0.545561C14.3166 2.65065 15.9637 4.39917 18.0025 5.57184ZM18.8596 17.6781C18.8596 19.4967 18.1372 21.2409 16.8512 22.5268C15.5652 23.8128 13.8211 24.5353 12.0025 24.5353C8.72306 24.5353 5.9682 22.1387 5.29963 19.0804C5.1402 18.345 6.05392 17.9781 6.69506 18.3724C7.53119 18.8853 8.46666 19.2148 9.43963 19.3393C9.95906 19.4044 10.3499 18.9278 10.3139 18.4067C10.1254 15.8119 10.9314 13.2426 12.5682 11.2204C12.655 11.1121 12.7695 11.0293 12.8997 10.981C13.0298 10.9327 13.1706 10.9206 13.3071 10.9461C14.8701 11.2494 16.2789 12.0869 17.292 13.3152C18.3051 14.5435 18.8593 16.0859 18.8596 17.6781Z" fill="url(#paint0_linear_1443_5799)"/>
<defs>
<linearGradient id="paint0_linear_1443_5799" x1="0" y1="0.037323" x2="29.3603" y2="7.86991" gradientUnits="userSpaceOnUse">
<stop stop-color="#F864BD"/>
<stop offset="1" stop-color="#4785FE"/>
</linearGradient>
</defs>
</svg>
