<svg width="36" height="38" viewBox="0 0 36 38" fill="none" xmlns="http://www.w3.org/2000/svg">
<path d="M3.75758 38C2.72425 38 1.83934 37.6276 1.10285 36.8828C0.366367 36.138 -0.00124934 35.2437 3.18979e-06 34.2V3.8C3.18979e-06 2.755 0.368245 1.8601 1.10473 1.1153C1.84121 0.370503 2.7255 -0.00126344 3.75758 3.22581e-06H17.2379C17.7389 3.22581e-06 18.2167 0.0950034 18.6714 0.285003C19.1261 0.475003 19.525 0.74417 19.8682 1.0925L28.9803 10.3075C29.3247 10.6558 29.5909 11.0599 29.7788 11.5197C29.9667 11.9795 30.0606 12.4621 30.0606 12.9675V17.29L15.0303 32.4425V38H3.75758ZM19.7273 38C19.4768 38 19.2576 37.905 19.0697 37.715C18.8818 37.525 18.7879 37.3033 18.7879 37.05V34.77C18.7879 34.5167 18.843 34.2633 18.9532 34.01C19.0634 33.7567 19.1962 33.5508 19.3515 33.3925L28.4636 24.13L32.503 28.12L23.3439 37.43C23.1874 37.62 22.9838 37.7625 22.7333 37.8575C22.4828 37.9525 22.2323 38 21.9818 38H19.7273ZM33.8652 26.79L29.8727 22.7525L31.1879 21.4225C31.5636 21.0425 32.0177 20.8525 32.55 20.8525C33.0823 20.8525 33.5207 21.0425 33.8652 21.4225L35.1803 22.8C35.5247 23.18 35.697 23.6316 35.697 24.1547C35.697 24.6778 35.5247 25.1129 35.1803 25.46L33.8652 26.79ZM18.7879 13.3H26.303L16.9091 3.8V11.4C16.9091 11.9383 17.0895 12.3899 17.4502 12.7547C17.8109 13.1195 18.2568 13.3013 18.7879 13.3Z" fill="url(#paint0_linear_2644_19480)"/>
<defs>
<linearGradient id="paint0_linear_2644_19480" x1="0" y1="0" x2="43.1119" y2="12.5712" gradientUnits="userSpaceOnUse">
<stop stop-color="#42B883"/>
<stop offset="0.0001" stop-color="#42B883"/>
<stop offset="1" stop-color="#0EBBD2"/>
</linearGradient>
</defs>
</svg>
