<svg width="38" height="38" viewBox="0 0 38 38" fill="none" xmlns="http://www.w3.org/2000/svg">
<path fill-rule="evenodd" clip-rule="evenodd" d="M19.0002 4.60831e-06C15.1411 4.60831e-06 11.3517 0.31456 7.66147 0.918338C7.29081 0.978932 6.95375 1.16932 6.71051 1.45549C6.46726 1.74166 6.33367 2.10498 6.33358 2.48056V3.29756C4.58769 3.629 2.86714 4.02589 1.17191 4.48823C0.845814 4.57727 0.556773 4.76835 0.347087 5.0335C0.137402 5.29864 0.0180793 5.62394 0.00658114 5.96178C-0.0881136 8.64341 0.842022 11.2604 2.60788 13.2808C4.37373 15.3012 6.84274 16.5732 9.51291 16.8382C11.1628 18.7039 13.3261 20.0418 15.7322 20.6847C15.534 22.3084 15.0449 23.8831 14.2882 25.3333H13.7225C12.8826 25.3333 12.0772 25.667 11.4833 26.2608C10.8894 26.8547 10.5558 27.6602 10.5558 28.5V33.7778H8.97247C7.5158 33.7778 6.33358 34.96 6.33358 36.4167C6.33358 37.2907 7.04291 38 7.91691 38H30.0836C30.5035 38 30.9062 37.8332 31.2032 37.5363C31.5001 37.2393 31.6669 36.8366 31.6669 36.4167C31.6669 34.96 30.4847 33.7778 29.028 33.7778H27.4447V28.5C27.4447 27.6602 27.1111 26.8547 26.5172 26.2608C25.9233 25.667 25.1179 25.3333 24.278 25.3333H23.7122C22.9557 23.883 22.4666 22.3084 22.2682 20.6847C24.6744 20.0418 26.8377 18.7039 28.4876 16.8382C31.1578 16.5732 33.6268 15.3012 35.3926 13.2808C37.1585 11.2604 38.0886 8.64341 37.9939 5.96178C37.9824 5.62394 37.8631 5.29864 37.6534 5.0335C37.4437 4.76835 37.1547 4.57727 36.8286 4.48823C35.1244 4.02359 33.4025 3.6264 31.6669 3.29756V2.48056C31.6668 2.10498 31.5332 1.74166 31.29 1.45549C31.0467 1.16932 30.7097 0.978932 30.339 0.918338C26.5905 0.305748 22.7985 -0.00137217 19.0002 4.60831e-06ZM3.21969 7.22423C4.2478 6.96667 5.28647 6.73445 6.33358 6.52334V8.44445C6.33358 10.0067 6.61647 11.5013 7.1358 12.8841C6.0734 12.329 5.16184 11.524 4.47964 10.5384C3.79744 9.55283 3.36504 8.41405 3.21969 7.22423ZM34.7808 7.22423C34.6357 8.41385 34.2036 9.55038 33.5218 10.536C32.8399 11.5216 31.9288 12.3267 30.8668 12.882C31.3979 11.4629 31.6689 9.95969 31.6669 8.44445V6.52334C32.714 6.73234 33.7527 6.96667 34.7808 7.22423Z" fill="url(#paint0_linear_2644_19467)"/>
<defs>
<linearGradient id="paint0_linear_2644_19467" x1="0" y1="0" x2="45.4197" y2="14.0988" gradientUnits="userSpaceOnUse">
<stop stop-color="#42B883"/>
<stop offset="0.0001" stop-color="#42B883"/>
<stop offset="1" stop-color="#0EBBD2"/>
</linearGradient>
</defs>
</svg>
