<svg width="48" height="38" viewBox="0 0 48 38" fill="none" xmlns="http://www.w3.org/2000/svg">
<path d="M15.4376 26.125C15.2602 26.125 15.0829 26.151 14.9136 26.2059C13.9518 26.5184 12.9402 26.7188 11.8751 26.7188C10.8101 26.7188 9.79848 26.5184 8.83586 26.2059C8.66664 26.151 8.49 26.125 8.31262 26.125C3.7066 26.125 -0.0243723 29.8716 0.000119899 34.4835C0.0105105 36.4325 1.61289 38 3.56262 38H20.1876C22.1373 38 23.7397 36.4325 23.7501 34.4835C23.7746 29.8716 20.0436 26.125 15.4376 26.125ZM11.8751 23.75C15.8102 23.75 19.0001 20.5601 19.0001 16.625C19.0001 12.6899 15.8102 9.5 11.8751 9.5C7.94004 9.5 4.75012 12.6899 4.75012 16.625C4.75012 20.5601 7.94004 23.75 11.8751 23.75ZM43.9376 0H15.4376C13.4731 0 11.8751 1.65137 11.8751 3.68051V7.125C13.6133 7.125 15.2224 7.6282 16.6251 8.44609V4.75H42.7501V26.125H38.0001V21.375H28.5001V26.125H22.8417C24.2593 27.3637 25.2998 28.9995 25.7874 30.875H43.9376C45.9022 30.875 47.5001 29.2236 47.5001 27.1945V3.68051C47.5001 1.65137 45.9022 0 43.9376 0Z" fill="url(#paint0_linear_2549_29204)"/>
<defs>
<linearGradient id="paint0_linear_2549_29204" x1="0" y1="0" x2="54.0997" y2="20.9913" gradientUnits="userSpaceOnUse">
<stop stop-color="#42B883"/>
<stop offset="0.0001" stop-color="#42B883"/>
<stop offset="1" stop-color="#0EBBD2"/>
</linearGradient>
</defs>
</svg>
