<svg width="30" height="26" viewBox="0 0 30 26" fill="none" xmlns="http://www.w3.org/2000/svg">
<path d="M30 8.52183C30 17.8968 16.0996 25.4852 15.5076 25.7986C15.3516 25.8826 15.1772 25.9265 15 25.9265C14.8228 25.9265 14.6484 25.8826 14.4924 25.7986C13.9004 25.4852 0 17.8968 0 8.52183C0.00248134 6.32035 0.878116 4.20975 2.4348 2.65306C3.99148 1.09638 6.10209 0.220743 8.30357 0.218262C11.0692 0.218262 13.4906 1.40755 15 3.41782C16.5094 1.40755 18.9308 0.218262 21.6964 0.218262C23.8979 0.220743 26.0085 1.09638 27.5652 2.65306C29.1219 4.20975 29.9975 6.32035 30 8.52183Z" fill="url(#paint0_linear_2940_78)"/>
<defs>
<linearGradient id="paint0_linear_2940_78" x1="0" y1="0.218262" x2="34.7524" y2="12.8066" gradientUnits="userSpaceOnUse">
<stop stop-color="#42B883"/>
<stop offset="0.0001" stop-color="#42B883"/>
<stop offset="1" stop-color="#0EBBD2"/>
</linearGradient>
</defs>
</svg>
