<svg width="30" height="30" viewBox="0 0 30 30" fill="none" xmlns="http://www.w3.org/2000/svg">
<path d="M0.825893 12.4797C0.372795 12.8107 0.280697 13.4496 0.621872 13.8951L1.17002 14.6109C1.44488 14.9698 1.44477 15.4685 1.16977 15.8273L0.622473 16.5413C0.28101 16.9868 0.373007 17.626 0.826239 17.9571L1.54951 18.4855C1.91516 18.7526 2.05566 19.2321 1.89202 19.6544L1.56673 20.4936C1.36355 21.0178 1.63232 21.6065 2.16152 21.7963L2.99818 22.0964C3.4252 22.2496 3.69562 22.671 3.6569 23.123L3.58028 24.0175C3.53223 24.5785 3.95661 25.0686 4.51871 25.1012L5.4004 25.1523C5.8539 25.1787 6.23269 25.5073 6.32266 25.9526L6.49952 26.8279C6.61124 27.3808 7.15787 27.7319 7.70716 27.6036L8.5633 27.4037C9.0069 27.3 9.46447 27.5093 9.67618 27.9127L10.0875 28.6964C10.3502 29.1969 10.9753 29.3803 11.4668 29.1012L12.2293 28.6682C12.6259 28.443 13.1247 28.5147 13.4418 28.8425L14.0539 29.4753C14.447 29.8816 15.0984 29.8816 15.4914 29.4753L16.1035 28.8425C16.4207 28.5147 16.9194 28.443 17.3161 28.6682L18.0786 29.1012C18.5701 29.3803 19.1951 29.1969 19.4578 28.6964L19.8692 27.9127C20.0809 27.5093 20.5385 27.3 20.9821 27.4037L21.8382 27.6036C22.3875 27.7319 22.9341 27.3808 23.0458 26.8279L23.2227 25.9526C23.3127 25.5073 23.6915 25.1787 24.145 25.1523L25.0267 25.1012C25.5888 25.0686 26.0131 24.5785 25.9651 24.0175L25.8885 23.123C25.8497 22.671 26.1202 22.2496 26.5472 22.0964L27.3838 21.7963C27.9131 21.6065 28.1818 21.0178 27.9786 20.4936L27.6534 19.6544C27.4897 19.2321 27.6302 18.7526 27.9959 18.4855L28.7191 17.9571C29.1724 17.626 29.2644 16.9868 28.9229 16.5413L28.3756 15.8273C28.1006 15.4685 28.1005 14.9698 28.3753 14.6109L28.9235 13.8952C29.2647 13.4496 29.1726 12.8107 28.7195 12.4797L27.9959 11.951C27.6302 11.6839 27.4897 11.2044 27.6534 10.7822L27.9786 9.94289C28.1818 9.41868 27.9131 8.83004 27.3838 8.64023L26.5472 8.34013C26.1202 8.18696 25.8497 7.76552 25.8885 7.3135L25.965 6.41971C26.0131 5.85845 25.5883 5.36825 25.0259 5.33601L24.1456 5.28554C23.6918 5.25952 23.3126 4.93075 23.2226 4.48523L23.0457 3.60981C22.934 3.05717 22.3878 2.70606 21.8387 2.83392L20.9814 3.03356C20.5381 3.13679 20.081 2.92761 19.8693 2.52465L19.4577 1.74098C19.195 1.24089 18.5705 1.0575 18.0791 1.33615L17.3159 1.76895C16.9193 1.99384 16.4208 1.92203 16.1039 1.59436L15.4914 0.961255C15.0984 0.55496 14.447 0.55496 14.0539 0.961255L13.4415 1.59436C13.1245 1.92203 12.6261 1.99384 12.2295 1.76895L11.4663 1.33615C10.9749 1.0575 10.3504 1.24089 10.0877 1.74098L9.67603 2.52465C9.46436 2.92761 9.00726 3.13679 8.56395 3.03356L7.70664 2.83392C7.15753 2.70606 6.61132 3.05717 6.49966 3.60981L6.32277 4.48523C6.23275 4.93075 5.8536 5.25952 5.39982 5.28554L4.51946 5.33601C3.95706 5.36825 3.53227 5.85845 3.58035 6.41971L3.6569 7.3135C3.69562 7.76552 3.4252 8.18696 2.99818 8.34013L2.16152 8.64023C1.63232 8.83004 1.36355 9.41868 1.56673 9.94289L1.89202 10.7822C2.05566 11.2044 1.91516 11.6839 1.54951 11.951L0.825893 12.4797Z" fill="url(#paint0_linear_2940_90)"/>
<defs>
<linearGradient id="paint0_linear_2940_90" x1="29.5454" y1="0.218262" x2="-5.86216" y2="11.0425" gradientUnits="userSpaceOnUse">
<stop stop-color="#42B883"/>
<stop offset="0.0001" stop-color="#42B883"/>
<stop offset="1" stop-color="#0EBBD2"/>
</linearGradient>
</defs>
</svg>
