<svg width="30" height="31" viewBox="0 0 30 31" fill="none" xmlns="http://www.w3.org/2000/svg">
<path d="M5.25 7.71826C4.65326 7.71826 4.08097 7.48121 3.65901 7.05925C3.23705 6.6373 3 6.065 3 5.46826C3 4.87152 3.23705 4.29923 3.65901 3.87727C4.08097 3.45531 4.65326 3.21826 5.25 3.21826C5.84674 3.21826 6.41903 3.45531 6.84099 3.87727C7.26295 4.29923 7.5 4.87152 7.5 5.46826C7.5 6.065 7.26295 6.6373 6.84099 7.05925C6.41903 7.48121 5.84674 7.71826 5.25 7.71826ZM29.115 14.5883L15.615 1.08826C15.075 0.548262 14.325 0.218262 13.5 0.218262H3C1.335 0.218262 0 1.55326 0 3.21826V13.7183C0 14.5433 0.33 15.2933 0.885 15.8333L14.37 29.3333C14.925 29.8733 15.675 30.2183 16.5 30.2183C17.325 30.2183 18.075 29.8733 18.615 29.3333L29.115 18.8333C29.67 18.2933 30 17.5433 30 16.7183C30 15.8783 29.655 15.1283 29.115 14.5883Z" fill="url(#paint0_linear_2940_95)"/>
<defs>
<linearGradient id="paint0_linear_2940_95" x1="0" y1="0.218262" x2="35.8573" y2="11.3487" gradientUnits="userSpaceOnUse">
<stop stop-color="#42B883"/>
<stop offset="0.0001" stop-color="#42B883"/>
<stop offset="1" stop-color="#0EBBD2"/>
</linearGradient>
</defs>
</svg>
