<svg width="30" height="31" viewBox="0 0 30 31" fill="none" xmlns="http://www.w3.org/2000/svg">
<path d="M3.75 30.1663C2.925 30.1663 2.2185 29.8723 1.6305 29.2843C1.0425 28.6963 0.749003 27.9903 0.750003 27.1663V3.16626C0.750003 2.34126 1.044 1.63476 1.632 1.04676C2.22 0.458762 2.926 0.165262 3.75 0.166262H14.5125C14.9125 0.166262 15.294 0.241262 15.657 0.391262C16.02 0.541262 16.3385 0.753762 16.6125 1.02876L23.8875 8.30376C24.1625 8.57876 24.375 8.89776 24.525 9.26076C24.675 9.62376 24.75 10.0048 24.75 10.4038V13.8163L12.75 25.7788V30.1663H3.75ZM16.5 30.1663C16.3 30.1663 16.125 30.0913 15.975 29.9413C15.825 29.7913 15.75 29.6163 15.75 29.4163V27.6163C15.75 27.4163 15.794 27.2163 15.882 27.0163C15.97 26.8163 16.076 26.6538 16.2 26.5288L23.475 19.2163L26.7 22.3663L19.3875 29.7163C19.2625 29.8663 19.1 29.9788 18.9 30.0538C18.7 30.1288 18.5 30.1663 18.3 30.1663H16.5ZM27.7875 21.3163L24.6 18.1288L25.65 17.0788C25.95 16.7788 26.3125 16.6288 26.7375 16.6288C27.1625 16.6288 27.5125 16.7788 27.7875 17.0788L28.8375 18.1663C29.1125 18.4663 29.25 18.8228 29.25 19.2358C29.25 19.6488 29.1125 19.9923 28.8375 20.2663L27.7875 21.3163ZM15.75 10.6663H21.75L14.25 3.16626V9.16626C14.25 9.59126 14.394 9.94776 14.682 10.2358C14.97 10.5238 15.326 10.6673 15.75 10.6663Z" fill="url(#paint0_linear_550_2624)"/>
<defs>
<linearGradient id="paint0_linear_550_2624" x1="0.75" y1="0.16626" x2="35.1088" y2="10.2983" gradientUnits="userSpaceOnUse">
<stop stop-color="#42B883"/>
<stop offset="0.0001" stop-color="#42B883"/>
<stop offset="1" stop-color="#0EBBD2"/>
</linearGradient>
</defs>
</svg>
