<svg width="30" height="31" viewBox="0 0 30 31" fill="none" xmlns="http://www.w3.org/2000/svg">
<path d="M18.3333 23.4996H6.66667V20.1663H18.3333M23.3333 16.8329H6.66667V13.4996H23.3333M23.3333 10.1663H6.66667V6.83293H23.3333M26.6667 0.16626H3.33333C1.48333 0.16626 0 1.64959 0 3.49959V26.8329C0 27.717 0.351189 28.5648 0.976311 29.1899C1.60143 29.8151 2.44928 30.1663 3.33333 30.1663H26.6667C27.5507 30.1663 28.3986 29.8151 29.0237 29.1899C29.6488 28.5648 30 27.717 30 26.8329V3.49959C30 2.61554 29.6488 1.76769 29.0237 1.14257C28.3986 0.517449 27.5507 0.16626 26.6667 0.16626Z" fill="url(#paint0_linear_550_2626)"/>
<defs>
<linearGradient id="paint0_linear_550_2626" x1="0" y1="0.16626" x2="35.8573" y2="11.2967" gradientUnits="userSpaceOnUse">
<stop stop-color="#42B883"/>
<stop offset="0.0001" stop-color="#42B883"/>
<stop offset="1" stop-color="#0EBBD2"/>
</linearGradient>
</defs>
</svg>
