<svg width="30" height="31" viewBox="0 0 30 31" fill="none" xmlns="http://www.w3.org/2000/svg">
<path fill-rule="evenodd" clip-rule="evenodd" d="M4.21875 0.16626C3.09987 0.16626 2.02681 0.610734 1.23564 1.4019C0.444474 2.19307 0 3.26613 0 4.38501V25.9475C0 27.0664 0.444474 28.1394 1.23564 28.9306C2.02681 29.7218 3.09987 30.1663 4.21875 30.1663H25.7812C26.9001 30.1663 27.9732 29.7218 28.7644 28.9306C29.5555 28.1394 30 27.0664 30 25.9475V4.38501C30 3.26613 29.5555 2.19307 28.7644 1.4019C27.9732 0.610734 26.9001 0.16626 25.7812 0.16626H4.21875ZM11.775 11.9413C12.0234 11.6747 12.1586 11.3221 12.1522 10.9578C12.1458 10.5935 11.9982 10.2459 11.7405 9.98822C11.4829 9.73057 11.1353 9.58298 10.771 9.57656C10.4067 9.57013 10.0541 9.70536 9.7875 9.95376L5.56875 14.1725C5.30541 14.4362 5.15749 14.7936 5.15749 15.1663C5.15749 15.5389 5.30541 15.8963 5.56875 16.16L9.7875 20.3788C10.0541 20.6272 10.4067 20.7624 10.771 20.756C11.1353 20.7495 11.4829 20.6019 11.7405 20.3443C11.9982 20.0867 12.1458 19.7391 12.1522 19.3747C12.1586 19.0104 12.0234 18.6578 11.775 18.3913L8.55 15.1663L11.775 11.9413ZM20.2125 9.95376C20.0838 9.8156 19.9285 9.70478 19.756 9.62792C19.5835 9.55106 19.3973 9.50973 19.2085 9.5064C19.0197 9.50307 18.8321 9.5378 18.657 9.60853C18.4819 9.67926 18.3228 9.78453 18.1893 9.91806C18.0558 10.0516 17.9505 10.2107 17.8798 10.3858C17.809 10.5609 17.7743 10.7484 17.7776 10.9372C17.781 11.1261 17.8223 11.3123 17.8992 11.4848C17.976 11.6573 18.0868 11.8125 18.225 11.9413L21.45 15.1663L18.225 18.3913C18.0868 18.52 17.976 18.6753 17.8992 18.8478C17.8223 19.0203 17.781 19.2065 17.7776 19.3953C17.7743 19.5841 17.809 19.7717 17.8798 19.9468C17.9505 20.1219 18.0558 20.2809 18.1893 20.4145C18.3228 20.548 18.4819 20.6533 18.657 20.724C18.8321 20.7947 19.0197 20.8295 19.2085 20.8261C19.3973 20.8228 19.5835 20.7815 19.756 20.7046C19.9285 20.6277 20.0838 20.5169 20.2125 20.3788L24.4312 16.16C24.6946 15.8963 24.8425 15.5389 24.8425 15.1663C24.8425 14.7936 24.6946 14.4362 24.4312 14.1725L20.2125 9.95376Z" fill="url(#paint0_linear_554_5738)"/>
<defs>
<linearGradient id="paint0_linear_554_5738" x1="0" y1="0.16626" x2="35.8573" y2="11.2967" gradientUnits="userSpaceOnUse">
<stop stop-color="#42B883"/>
<stop offset="0.0001" stop-color="#42B883"/>
<stop offset="1" stop-color="#0EBBD2"/>
</linearGradient>
</defs>
</svg>
