<svg fill="none" viewBox="0 0 71 61" height="61" width="71" xmlns="http://www.w3.org/2000/svg" class="h-10 w-auto shrink-0 md:h-20">
<path xmlns="http://www.w3.org/2000/svg" d="M70.0165 19.5983C70.0165 41.4785 37.5745 59.1889 36.1929 59.9203C35.8288 60.1162 35.4217 60.2188 35.0083 60.2188C34.5948 60.2188 34.1877 60.1162 33.8236 59.9203C32.442 59.1889 0 41.4785 0 19.5983C0.00579117 14.4603 2.04942 9.53441 5.68254 5.90129C9.31566 2.26817 14.2416 0.224541 19.3796 0.21875C25.8342 0.21875 31.4855 2.9944 35.0083 7.68614C38.531 2.9944 44.1823 0.21875 50.6369 0.21875C55.7749 0.224541 60.7009 2.26817 64.334 5.90129C67.9671 9.53441 70.0107 14.4603 70.0165 19.5983Z" fill="white" fill-opacity="0.2"></path>
<path xmlns="http://www.w3.org/2000/svg" d="M21 18L35.2052 42.17L49.4103 18H43.7283L35.2052 32.502L26.611 18H21Z" fill="#3DD491"></path>
<path xmlns="http://www.w3.org/2000/svg" d="M26.6798 18L35.2383 32.6916L43.726 18H38.4919L35.2383 23.6506L31.9139 18H26.6798Z" fill="#2C3D4F"></path>
</svg>